<svg width="32" height="32" viewBox="0 0 32 32" fill="none" xmlns="http://www.w3.org/2000/svg">
<path fill-rule="evenodd" clip-rule="evenodd" d="M21.1329 3.33426C21.9743 3.33426 22.8143 3.45292 23.6129 3.72092C28.5343 5.32093 30.3076 10.7209 28.8263 15.4409C27.9863 17.8529 26.6129 20.0543 24.8143 21.8529C22.2396 24.3463 19.4143 26.5596 16.3729 28.4663L16.0396 28.6676L15.6929 28.4529C12.6409 26.5596 9.79962 24.3463 7.20095 21.8396C5.41428 20.0409 4.03962 17.8529 3.18628 15.4409C1.67962 10.7209 3.45295 5.32092 8.42762 3.69292C8.81428 3.55959 9.21295 3.46626 9.61295 3.41426H9.77295C10.1476 3.35959 10.5196 3.33426 10.8929 3.33426H11.0396C11.8796 3.35959 12.6929 3.50626 13.4809 3.77426H13.5596C13.6129 3.79959 13.6529 3.82759 13.6796 3.85293C13.9743 3.94759 14.2529 4.05426 14.5196 4.20092L15.0263 4.42759C15.1487 4.49289 15.2861 4.59266 15.4049 4.67889C15.4801 4.73352 15.5479 4.78271 15.5996 4.81426C15.6214 4.8271 15.6435 4.84001 15.6658 4.85302C15.7801 4.91976 15.8992 4.98927 15.9996 5.06626C17.4809 3.93426 19.2796 3.32092 21.1329 3.33426ZM24.6796 12.9343C25.2263 12.9196 25.6929 12.4809 25.7329 11.9196V11.7609C25.7729 9.89292 24.6409 8.20092 22.9196 7.54759C22.373 7.35959 21.773 7.65426 21.573 8.21426C21.3863 8.77426 21.6796 9.38759 22.2396 9.58626C23.0943 9.90626 23.6663 10.7476 23.6663 11.6796V11.7209C23.641 12.0263 23.733 12.3209 23.9196 12.5476C24.1063 12.7743 24.3863 12.9063 24.6796 12.9343Z" fill="#91C788"/>
</svg>
